{
  "asset": { "version": "2.0" },
  "scene": 0,
  "scenes": [{ "nodes": [0] }],
  "nodes": [{ "mesh": 0 }],
  "meshes": [{ "primitives": [{ "attributes": { "POSITION": 0 }, "material": 0 }] }],
  "materials": [{
    "doubleSided": true,
    "pbrMetallicRoughness": { "baseColorFactor": [0.1, 0.7, 1.0, 1.0], "metallicFactor": 0, "roughnessFactor": 0.8 }
  }],
  "buffers": [{ "uri": "data:application/octet-stream;base64,", "byteLength": 36 }],
  "bufferViews": [{ "buffer": 0, "byteOffset": 0, "byteLength": 36, "target": 34962 }],
  "accessors": [{ "bufferView": 0, "byteOffset": 0, "componentType": 5126, "count": 3, "type": "VEC3", "min": [-0.5, 0, 0], "max": [0.5, 1, 0] }]
}
